#!OML:ASF H:\Terrain\Patient Classification 1\Terrain2\Thursday\justin.ASF
:FULLY-SPECIFIED
:DEGREES
3213
root -0.927091 17.1211 -21.8863 358.844 -373.495 -721.444
lowerback 4.69598 0.537607 1.60455
upperback 2.37539 0.791086 3.31277
thorax -0.216332 0.385692 2.46584
lowerneck -11.1076 0.0588017 -7.61932
upperneck 40.4242 1.84422 0.5965
head 16.3075 -0.376126 1.91773
rclavicle -1.05356e-014 -7.95139e-015
rhumerus -33.6512 -12.4923 -76.2723
rradius 28.455
rwrist -9.72346
rhand -21.8713 13.2081
rfingers 7.12502
rthumb 4.53306 -16.7234
lclavicle -1.05356e-014 -7.95139e-015
lhumerus -36.3571 15.521 74.3615
lradius 24.6193
lwrist 1.08404
lhand -18.9272 22.6695
lfingers 7.12502
lthumb 7.37544 52.521
rfemur -6.83259 -3.39087 22.6639
rtibia 35.3819
rfoot -22.6621 2.31296
rtoes 8.14168
lfemur -7.24462 -4.55402 -16.8994
ltibia 30.3712
lfoot -16.1415 -22.1328
ltoes 10.7166
3214
root -0.9529 17.1128 -21.8756 358.839 -373.234 -721.771
lowerback 4.81736 0.51383 1.91793
upperback 2.31095 0.780524 3.47164
thorax -0.347576 0.381636 2.45296
lowerneck -11.0971 0.0161418 -7.95019
upperneck 40.4791 1.85339 0.665101
head 16.3342 -0.413987 2.00963
rclavicle 3.23025e-014 4.37326e-014
rhumerus -33.561 -12.1025 -76.0939
rradius 28.5943
rwrist -9.90749
rhand -21.9537 13.2295
rfingers 7.12502
rthumb 4.45346 -16.7037
lclavicle 3.23025e-014 4.37326e-014
lhumerus -36.9324 15.812 74.3613
lradius 24.8255
lwrist 1.85099
lhand -18.9183 21.4503
lfingers 7.12502
lthumb 7.38401 51.3014
rfemur -6.39938 -3.92104 23.0288
rtibia 34.8643
rfoot -22.7199 2.59677
rtoes 8.3331
lfemur -7.46981 -4.81276 -16.5486
ltibia 30.9663
lfoot -15.9613 -22.1222
ltoes 12.0964
3215
root -0.982817 17.0947 -21.8591 358.774 -373.394 -722.018
lowerback 4.87939 0.6363 2.03273
upperback 2.33482 0.950979 3.68124
thorax -0.363862 0.466249 2.59608
lowerneck -11.163 -0.02988 -8.38517
upperneck 40.4624 1.90005 0.723677
head 16.3404 -0.450602 2.12143
rclavicle -5.02925e-014 1.59028e-015
rhumerus -33.4818 -11.2751 -75.9811
rradius 28.9643
rwrist -10.3943
rhand -22.3912 13.9218
rfingers 7.12502
rthumb 4.03102 -16.0198
lclavicle -5.02925e-014 1.59028e-015
lhumerus -37.4499 15.829 74.6575
lradius 25.2561
lwrist 2.93121
lhand -19.1666 21.7884
lfingers 7.12502
lthumb 7.14431 51.6478
rfemur -5.88595 -3.92723 23.3314
rtibia 34.3014
rfoot -22.8559 2.6606
rtoes 8.89782
lfemur -7.61761 -4.7484 -16.2884
ltibia 31.6686
lfoot -15.2341 -22.0866
ltoes 15.7087
3216
root -1.00995 17.0783 -21.8491 358.799 -373.463 -722.465
lowerback 4.96391 0.776003 2.47531
upperback 2.39892 1.15733 3.8223
thorax -0.344893 0.571334 2.48236
lowerneck -11.2587 -0.0400926 -8.60314
upperneck 40.3096 1.91059 0.862798
head 16.2779 -0.451076 2.22266
rclavicle 1.35174e-014 -1.59028e-015
rhumerus -33.3917 -10.6161 -76.0222
rradius 29.4842
rwrist -11.0424
rhand -22.6399 14.4192
rfingers 7.12502
rthumb 3.79088 -15.5268
lclavicle 1.35174e-014 -1.59028e-015
lhumerus -37.5948 15.7834 74.8268
lradius 25.4714
lwrist 3.54427
lhand -18.7712 22.5247
lfingers 7.12502
lthumb 7.52601 52.3708
rfemur -5.37746 -3.81335 23.8686
rtibia 33.6932
rfoot -22.9118 2.4519
rtoes 8.78637
lfemur -7.78293 -5.04629 -15.7679
ltibia 32.4471
lfoot -15.3067 -21.6954
ltoes 16.0512
3217
root -1.03694 17.0704 -21.8504 358.895 -373.126 -723.099
lowerback 5.15101 0.800129 3.25791
upperback 2.45293 1.23125 3.86534
thorax -0.378796 0.612926 2.08236
lowerneck -11.5951 -0.0255466 -8.55105
upperneck 40.2889 1.88295 1.08325
head 16.3435 -0.422362 2.31138
rclavicle -1.19271e-015 -2.06736e-014
rhumerus -33.0656 -10.6425 -76.0821
rradius 29.6051
rwrist -11.3752
rhand -22.0241 13.9343
rfingers 7.12502
rthumb 4.38551 -16.0003
lclavicle -1.19271e-015 -2.06736e-014
lhumerus -37.596 15.8122 74.719
lradius 25.5516
lwrist 3.6087
lhand -18.0954 22.7521
lfingers 7.12502
lthumb 8.17826 52.5738
rfemur -4.95671 -3.89842 24.6401
rtibia 33.0957
rfoot -22.9487 2.22265
rtoes 8.03405
lfemur -8.21774 -5.41974 -15.014
ltibia 33.3109
lfoot -15.6561 -21.4457
ltoes 14.4118
3218
root -1.06793 17.0618 -21.8522 358.963 -372.835 -723.796
lowerback 5.27912 0.821245 4.0169
upperback 2.54557 1.29697 3.98593
thorax -0.339844 0.650693 1.7784
lowerneck -11.9854 -0.04763 -8.38473
upperneck 40.3436 1.86857 1.05947
head 16.4714 -0.408222 2.27607
rclavicle -8.15017e-015 -3.18055e-014
rhumerus -32.5428 -11.0836 -75.96
rradius 29.3551
rwrist -11.099
rhand -21.6227 13.9335
rfingers 7.12502
rthumb 4.77314 -15.9927
lclavicle -8.15017e-015 -3.18055e-014
lhumerus -37.6922 15.6172 74.8618
lradius 25.7765
lwrist 4.00725
lhand -17.9884 22.8482
lfingers 7.12502
lthumb 8.2815 52.6659
rfemur -4.54523 -3.93424 25.4809
rtibia 32.5361
rfoot -22.9056 2.53927
rtoes 8.99378
lfemur -8.79796 -5.09187 -14.1889
ltibia 34.2755
lfoot -15.6896 -21.494
ltoes 11.6418
